<svg width="222" height="179" viewBox="0 0 222 179" fill="none" xmlns="http://www.w3.org/2000/svg">
<path d="M42.5445 152.4C43.9678 152.703 45.1112 153.415 45.9745 154.535C46.8378 155.632 47.2695 156.892 47.2695 158.315C47.2695 160.368 46.5462 162.002 45.0995 163.215C43.6762 164.405 41.6812 165 39.1145 165H27.6695V140.43H38.7295C41.2262 140.43 43.1745 141.002 44.5745 142.145C45.9978 143.288 46.7095 144.84 46.7095 146.8C46.7095 148.247 46.3245 149.448 45.5545 150.405C44.8078 151.362 43.8045 152.027 42.5445 152.4ZM33.6545 150.37H37.5745C38.5545 150.37 39.3012 150.16 39.8145 149.74C40.3512 149.297 40.6195 148.655 40.6195 147.815C40.6195 146.975 40.3512 146.333 39.8145 145.89C39.3012 145.447 38.5545 145.225 37.5745 145.225H33.6545V150.37ZM38.0645 160.17C39.0678 160.17 39.8378 159.948 40.3745 159.505C40.9345 159.038 41.2145 158.373 41.2145 157.51C41.2145 156.647 40.9228 155.97 40.3395 155.48C39.7795 154.99 38.9978 154.745 37.9945 154.745H33.6545V160.17H38.0645ZM49.5508 155.2C49.5508 153.193 49.9241 151.432 50.6708 149.915C51.4408 148.398 52.4791 147.232 53.7858 146.415C55.0925 145.598 56.5508 145.19 58.1608 145.19C59.5375 145.19 60.7391 145.47 61.7658 146.03C62.8158 146.59 63.6208 147.325 64.1808 148.235V145.47H70.1658V165H64.1808V162.235C63.5975 163.145 62.7808 163.88 61.7308 164.44C60.7041 165 59.5025 165.28 58.1258 165.28C56.5391 165.28 55.0925 164.872 53.7858 164.055C52.4791 163.215 51.4408 162.037 50.6708 160.52C49.9241 158.98 49.5508 157.207 49.5508 155.2ZM64.1808 155.235C64.1808 153.742 63.7608 152.563 62.9208 151.7C62.1041 150.837 61.1008 150.405 59.9108 150.405C58.7208 150.405 57.7058 150.837 56.8658 151.7C56.0491 152.54 55.6408 153.707 55.6408 155.2C55.6408 156.693 56.0491 157.883 56.8658 158.77C57.7058 159.633 58.7208 160.065 59.9108 160.065C61.1008 160.065 62.1041 159.633 62.9208 158.77C63.7608 157.907 64.1808 156.728 64.1808 155.235ZM80.4807 139.1V165H74.4957V139.1H80.4807ZM83.6279 155.2C83.6279 153.193 84.0013 151.432 84.7479 149.915C85.5179 148.398 86.5563 147.232 87.8629 146.415C89.1696 145.598 90.6279 145.19 92.2379 145.19C93.6146 145.19 94.8163 145.47 95.8429 146.03C96.8929 146.59 97.6979 147.325 98.2579 148.235V145.47H104.243V165H98.2579V162.235C97.6746 163.145 96.858 163.88 95.8079 164.44C94.7813 165 93.5796 165.28 92.2029 165.28C90.6163 165.28 89.1696 164.872 87.8629 164.055C86.5563 163.215 85.5179 162.037 84.7479 160.52C84.0013 158.98 83.6279 157.207 83.6279 155.2ZM98.2579 155.235C98.2579 153.742 97.8379 152.563 96.998 151.7C96.1813 150.837 95.1779 150.405 93.9879 150.405C92.7979 150.405 91.7829 150.837 90.9429 151.7C90.1263 152.54 89.7179 153.707 89.7179 155.2C89.7179 156.693 90.1263 157.883 90.9429 158.77C91.7829 159.633 92.7979 160.065 93.9879 160.065C95.1779 160.065 96.1813 159.633 96.998 158.77C97.8379 157.907 98.2579 156.728 98.2579 155.235ZM120.473 145.26C122.759 145.26 124.579 146.007 125.933 147.5C127.31 148.97 127.998 151 127.998 153.59V165H122.048V154.395C122.048 153.088 121.709 152.073 121.033 151.35C120.356 150.627 119.446 150.265 118.303 150.265C117.159 150.265 116.249 150.627 115.573 151.35C114.896 152.073 114.558 153.088 114.558 154.395V165H108.573V145.47H114.558V148.06C115.164 147.197 115.981 146.52 117.008 146.03C118.034 145.517 119.189 145.26 120.473 145.26ZM130.967 155.235C130.967 153.205 131.375 151.432 132.192 149.915C133.032 148.398 134.187 147.232 135.657 146.415C137.15 145.598 138.853 145.19 140.767 145.19C143.217 145.19 145.258 145.832 146.892 147.115C148.548 148.398 149.633 150.207 150.147 152.54H143.777C143.24 151.047 142.202 150.3 140.662 150.3C139.565 150.3 138.69 150.732 138.037 151.595C137.383 152.435 137.057 153.648 137.057 155.235C137.057 156.822 137.383 158.047 138.037 158.91C138.69 159.75 139.565 160.17 140.662 160.17C142.202 160.17 143.24 159.423 143.777 157.93H150.147C149.633 160.217 148.548 162.013 146.892 163.32C145.235 164.627 143.193 165.28 140.767 165.28C138.853 165.28 137.15 164.872 135.657 164.055C134.187 163.238 133.032 162.072 132.192 160.555C131.375 159.038 130.967 157.265 130.967 155.235ZM171.758 154.92C171.758 155.48 171.723 156.063 171.653 156.67H158.108C158.202 157.883 158.587 158.817 159.263 159.47C159.963 160.1 160.815 160.415 161.818 160.415C163.312 160.415 164.35 159.785 164.933 158.525H171.303C170.977 159.808 170.382 160.963 169.518 161.99C168.678 163.017 167.617 163.822 166.333 164.405C165.05 164.988 163.615 165.28 162.028 165.28C160.115 165.28 158.412 164.872 156.918 164.055C155.425 163.238 154.258 162.072 153.418 160.555C152.578 159.038 152.158 157.265 152.158 155.235C152.158 153.205 152.567 151.432 153.383 149.915C154.223 148.398 155.39 147.232 156.883 146.415C158.377 145.598 160.092 145.19 162.028 145.19C163.918 145.19 165.598 145.587 167.068 146.38C168.538 147.173 169.682 148.305 170.498 149.775C171.338 151.245 171.758 152.96 171.758 154.92ZM165.633 153.345C165.633 152.318 165.283 151.502 164.583 150.895C163.883 150.288 163.008 149.985 161.958 149.985C160.955 149.985 160.103 150.277 159.403 150.86C158.727 151.443 158.307 152.272 158.143 153.345H165.633ZM173.726 155.2C173.726 153.193 174.099 151.432 174.846 149.915C175.616 148.398 176.654 147.232 177.961 146.415C179.267 145.598 180.726 145.19 182.336 145.19C183.619 145.19 184.786 145.458 185.836 145.995C186.909 146.532 187.749 147.255 188.356 148.165V139.1H194.341V165H188.356V162.2C187.796 163.133 186.991 163.88 185.941 164.44C184.914 165 183.712 165.28 182.336 165.28C180.726 165.28 179.267 164.872 177.961 164.055C176.654 163.215 175.616 162.037 174.846 160.52C174.099 158.98 173.726 157.207 173.726 155.2ZM188.356 155.235C188.356 153.742 187.936 152.563 187.096 151.7C186.279 150.837 185.276 150.405 184.086 150.405C182.896 150.405 181.881 150.837 181.041 151.7C180.224 152.54 179.816 153.707 179.816 155.2C179.816 156.693 180.224 157.883 181.041 158.77C181.881 159.633 182.896 160.065 184.086 160.065C185.276 160.065 186.279 159.633 187.096 158.77C187.936 157.907 188.356 156.728 188.356 155.235Z" fill="white"/>
<rect x="115.192" width="66.346" height="22.1153" rx="10" fill="white"/>
<rect x="115.192" y="30.9614" width="66.346" height="22.1153" rx="10" fill="white"/>
<rect x="115.192" y="61.9226" width="66.346" height="22.1153" rx="10" fill="white"/>
<rect x="40" y="61.9226" width="66.346" height="22.1153" rx="10" fill="white"/>
<rect x="115.192" y="92.8845" width="66.346" height="22.1153" rx="10" fill="white"/>
<rect x="40" y="92.8845" width="66.346" height="22.1153" rx="10" fill="white"/>
</svg>
